
        <svg xmlns="http://www.w3.org/2000/svg" xmlns:xlink="http://www.w3.org/1999/xlink" version="1.1" width="3162.1621621621625" 
        height="706.7328322852865" viewBox="0 -48.64864864864865 3162.1621621621625 706.7328322852865">
			
			<g transform="scale(8.108108108108109) translate(10, 10)">
				<defs id="SvgjsDefs1034"></defs><g id="SvgjsG1035" featureKey="v37d4h-0" transform="matrix(0.6903353472729052,0,0,0.6903353472729052,-0.3530579653441901,-17.94280098113719)" fill="#2b95e4"><g xmlns="http://www.w3.org/2000/svg" class="st0" style="display: none;"><g class="st1" style="display: inline;"><rect class="st2" width="128" height="128" style="fill: none; stroke: #2b95e4; stroke-width: 0.1; stroke-miterlimit: 10;"></rect><line class="st2" x1="0" y1="124" x2="128" y2="124" style="fill: none; stroke: #2b95e4; stroke-width: 0.1; stroke-miterlimit: 10;"></line><line class="st2" x1="0" y1="120" x2="128" y2="120" style="fill: none; stroke: #2b95e4; stroke-width: 0.1; stroke-miterlimit: 10;"></line><line class="st2" x1="0" y1="116" x2="128" y2="116" style="fill: none; stroke: #2b95e4; stroke-width: 0.1; stroke-miterlimit: 10;"></line><line class="st2" x1="0" y1="112" x2="128" y2="112" style="fill: none; stroke: #2b95e4; stroke-width: 0.1; stroke-miterlimit: 10;"></line><line class="st2" x1="0" y1="108" x2="128" y2="108" style="fill: none; stroke: #2b95e4; stroke-width: 0.1; stroke-miterlimit: 10;"></line><line class="st2" x1="0" y1="104" x2="128" y2="104" style="fill: none; stroke: #2b95e4; stroke-width: 0.1; stroke-miterlimit: 10;"></line><line class="st2" x1="0" y1="100" x2="128" y2="100" style="fill: none; stroke: #2b95e4; stroke-width: 0.1; stroke-miterlimit: 10;"></line><line class="st2" x1="0" y1="96" x2="128" y2="96" style="fill: none; stroke: #2b95e4; stroke-width: 0.1; stroke-miterlimit: 10;"></line><line class="st2" x1="0" y1="92" x2="128" y2="92" style="fill: none; stroke: #2b95e4; stroke-width: 0.1; stroke-miterlimit: 10;"></line><line class="st2" x1="0" y1="88" x2="128" y2="88" style="fill: none; stroke: #2b95e4; stroke-width: 0.1; stroke-miterlimit: 10;"></line><line class="st2" x1="0" y1="84" x2="128" y2="84" style="fill: none; stroke: #2b95e4; stroke-width: 0.1; stroke-miterlimit: 10;"></line><line class="st2" x1="0" y1="80" x2="128" y2="80" style="fill: none; stroke: #2b95e4; stroke-width: 0.1; stroke-miterlimit: 10;"></line><line class="st2" x1="0" y1="76" x2="128" y2="76" style="fill: none; stroke: #2b95e4; stroke-width: 0.1; stroke-miterlimit: 10;"></line><line class="st2" x1="0" y1="72" x2="128" y2="72" style="fill: none; stroke: #2b95e4; stroke-width: 0.1; stroke-miterlimit: 10;"></line><line class="st2" x1="0" y1="68" x2="128" y2="68" style="fill: none; stroke: #2b95e4; stroke-width: 0.1; stroke-miterlimit: 10;"></line><line class="st2" x1="0" y1="64" x2="128" y2="64" style="fill: none; stroke: #2b95e4; stroke-width: 0.1; stroke-miterlimit: 10;"></line><line class="st2" x1="0" y1="60" x2="128" y2="60" style="fill: none; stroke: #2b95e4; stroke-width: 0.1; stroke-miterlimit: 10;"></line><line class="st2" x1="0" y1="56" x2="128" y2="56" style="fill: none; stroke: #2b95e4; stroke-width: 0.1; stroke-miterlimit: 10;"></line><line class="st2" x1="0" y1="52" x2="128" y2="52" style="fill: none; stroke: #2b95e4; stroke-width: 0.1; stroke-miterlimit: 10;"></line><line class="st2" x1="0" y1="48" x2="128" y2="48" style="fill: none; stroke: #2b95e4; stroke-width: 0.1; stroke-miterlimit: 10;"></line><line class="st2" x1="0" y1="44" x2="128" y2="44" style="fill: none; stroke: #2b95e4; stroke-width: 0.1; stroke-miterlimit: 10;"></line><line class="st2" x1="0" y1="40" x2="128" y2="40" style="fill: none; stroke: #2b95e4; stroke-width: 0.1; stroke-miterlimit: 10;"></line><line class="st2" x1="0" y1="36" x2="128" y2="36" style="fill: none; stroke: #2b95e4; stroke-width: 0.1; stroke-miterlimit: 10;"></line><line class="st2" x1="0" y1="32" x2="128" y2="32" style="fill: none; stroke: #2b95e4; stroke-width: 0.1; stroke-miterlimit: 10;"></line><line class="st2" x1="0" y1="28" x2="128" y2="28" style="fill: none; stroke: #2b95e4; stroke-width: 0.1; stroke-miterlimit: 10;"></line><line class="st2" x1="0" y1="24" x2="128" y2="24" style="fill: none; stroke: #2b95e4; stroke-width: 0.1; stroke-miterlimit: 10;"></line><line class="st2" x1="0" y1="20" x2="128" y2="20" style="fill: none; stroke: #2b95e4; stroke-width: 0.1; stroke-miterlimit: 10;"></line><line class="st2" x1="0" y1="16" x2="128" y2="16" style="fill: none; stroke: #2b95e4; stroke-width: 0.1; stroke-miterlimit: 10;"></line><line class="st2" x1="0" y1="12" x2="128" y2="12" style="fill: none; stroke: #2b95e4; stroke-width: 0.1; stroke-miterlimit: 10;"></line><line class="st2" x1="0" y1="8" x2="128" y2="8" style="fill: none; stroke: #2b95e4; stroke-width: 0.1; stroke-miterlimit: 10;"></line><line class="st2" x1="0" y1="4" x2="128" y2="4" style="fill: none; stroke: #2b95e4; stroke-width: 0.1; stroke-miterlimit: 10;"></line><line class="st2" x1="124" y1="0" x2="124" y2="128" style="fill: none; stroke: #2b95e4; stroke-width: 0.1; stroke-miterlimit: 10;"></line><line class="st2" x1="120" y1="0" x2="120" y2="128" style="fill: none; stroke: #2b95e4; stroke-width: 0.1; stroke-miterlimit: 10;"></line><line class="st2" x1="116" y1="0" x2="116" y2="128" style="fill: none; stroke: #2b95e4; stroke-width: 0.1; stroke-miterlimit: 10;"></line><line class="st2" x1="112" y1="0" x2="112" y2="128" style="fill: none; stroke: #2b95e4; stroke-width: 0.1; stroke-miterlimit: 10;"></line><line class="st2" x1="108" y1="0" x2="108" y2="128" style="fill: none; stroke: #2b95e4; stroke-width: 0.1; stroke-miterlimit: 10;"></line><line class="st2" x1="104" y1="0" x2="104" y2="128" style="fill: none; stroke: #2b95e4; stroke-width: 0.1; stroke-miterlimit: 10;"></line><line class="st2" x1="100" y1="0" x2="100" y2="128" style="fill: none; stroke: #2b95e4; stroke-width: 0.1; stroke-miterlimit: 10;"></line><line class="st2" x1="96" y1="0" x2="96" y2="128" style="fill: none; stroke: #2b95e4; stroke-width: 0.1; stroke-miterlimit: 10;"></line><line class="st2" x1="92" y1="0" x2="92" y2="128" style="fill: none; stroke: #2b95e4; stroke-width: 0.1; stroke-miterlimit: 10;"></line><line class="st2" x1="88" y1="0" x2="88" y2="128" style="fill: none; stroke: #2b95e4; stroke-width: 0.1; stroke-miterlimit: 10;"></line><line class="st2" x1="84" y1="0" x2="84" y2="128" style="fill: none; stroke: #2b95e4; stroke-width: 0.1; stroke-miterlimit: 10;"></line><line class="st2" x1="80" y1="0" x2="80" y2="128" style="fill: none; stroke: #2b95e4; stroke-width: 0.1; stroke-miterlimit: 10;"></line><line class="st2" x1="76" y1="0" x2="76" y2="128" style="fill: none; stroke: #2b95e4; stroke-width: 0.1; stroke-miterlimit: 10;"></line><line class="st2" x1="72" y1="0" x2="72" y2="128" style="fill: none; stroke: #2b95e4; stroke-width: 0.1; stroke-miterlimit: 10;"></line><line class="st2" x1="68" y1="0" x2="68" y2="128" style="fill: none; stroke: #2b95e4; stroke-width: 0.1; stroke-miterlimit: 10;"></line><line class="st2" x1="64" y1="0" x2="64" y2="128" style="fill: none; stroke: #2b95e4; stroke-width: 0.1; stroke-miterlimit: 10;"></line><line class="st2" x1="60" y1="0" x2="60" y2="128" style="fill: none; stroke: #2b95e4; stroke-width: 0.1; stroke-miterlimit: 10;"></line><line class="st2" x1="56" y1="0" x2="56" y2="128" style="fill: none; stroke: #2b95e4; stroke-width: 0.1; stroke-miterlimit: 10;"></line><line class="st2" x1="52" y1="0" x2="52" y2="128" style="fill: none; stroke: #2b95e4; stroke-width: 0.1; stroke-miterlimit: 10;"></line><line class="st2" x1="48" y1="0" x2="48" y2="128" style="fill: none; stroke: #2b95e4; stroke-width: 0.1; stroke-miterlimit: 10;"></line><line class="st2" x1="44" y1="0" x2="44" y2="128" style="fill: none; stroke: #2b95e4; stroke-width: 0.1; stroke-miterlimit: 10;"></line><line class="st2" x1="40" y1="0" x2="40" y2="128" style="fill: none; stroke: #2b95e4; stroke-width: 0.1; stroke-miterlimit: 10;"></line><line class="st2" x1="36" y1="0" x2="36" y2="128" style="fill: none; stroke: #2b95e4; stroke-width: 0.1; stroke-miterlimit: 10;"></line><line class="st2" x1="32" y1="0" x2="32" y2="128" style="fill: none; stroke: #2b95e4; stroke-width: 0.1; stroke-miterlimit: 10;"></line><line class="st2" x1="28" y1="0" x2="28" y2="128" style="fill: none; stroke: #2b95e4; stroke-width: 0.1; stroke-miterlimit: 10;"></line><line class="st2" x1="24" y1="0" x2="24" y2="128" style="fill: none; stroke: #2b95e4; stroke-width: 0.1; stroke-miterlimit: 10;"></line><line class="st2" x1="20" y1="0" x2="20" y2="128" style="fill: none; stroke: #2b95e4; stroke-width: 0.1; stroke-miterlimit: 10;"></line><line class="st2" x1="16" y1="0" x2="16" y2="128" style="fill: none; stroke: #2b95e4; stroke-width: 0.1; stroke-miterlimit: 10;"></line><line class="st2" x1="12" y1="0" x2="12" y2="128" style="fill: none; stroke: #2b95e4; stroke-width: 0.1; stroke-miterlimit: 10;"></line><line class="st2" x1="8" y1="0" x2="8" y2="128" style="fill: none; stroke: #2b95e4; stroke-width: 0.1; stroke-miterlimit: 10;"></line><line class="st2" x1="4" y1="0" x2="4" y2="128" style="fill: none; stroke: #2b95e4; stroke-width: 0.1; stroke-miterlimit: 10;"></line></g></g><g xmlns="http://www.w3.org/2000/svg"><g><path class="st3" d="M64.5,84.6V86l-1.3,0.3c-4.1,0.5-7.1,4-7.1,8.1v0.4c0,4.5,3.7,8.1,8.1,8.1h38.2c4.3,0,7.9-3.5,8.1-7.8    c-0.1-1.3-0.5-2.6-1.1-3.7c-1.3-2.4-3.8-3.9-6.5-4.2l-1.1-0.1l-0.2-1.1c-0.7-3.3-3.7-5.7-7-5.7c-2.1,0-4,0.9-5.4,2.4l-1.9,2.2    l-0.7-2.8c-1.2-5.1-5.7-8.6-10.9-8.6C69.5,73.5,64.5,78.5,64.5,84.6z" style="fill: none;"></path><path class="st3" d="M52.9,93.3c0.4-4.8,3.8-8.9,8.5-10c0.6-7.3,6.7-13,14.1-13c1.1,0,2.3,0.1,3.4,0.4    c5.4-14.8,0.4-31.5-12.5-40.8c-1.5-1.1-3.2-2.1-4.8-2.9c7.4,13,6.7,29.2-2.4,41.6c-9,12.4-24.2,18.1-38.8,15.1    c1.3,1.3,2.7,2.5,4.3,3.7C32.8,93.2,43,95.4,52.9,93.3z" style="fill: none;"></path><path d="M14.8,81.8c2.2,3,5,5.7,8.1,7.9c6.7,4.8,14.6,7.4,22.6,7.4c2.6,0,5.1-0.3,7.7-0.8c0.8,5.4,5.4,9.6,11,9.6h38.2    c6,0,10.9-4.7,11.1-10.7l0-0.1l0-0.1c-0.1-1.8-0.6-3.5-1.5-5.1c-1.6-2.9-4.5-4.9-7.7-5.6c-1.4-4.1-5.3-7-9.7-7    c-2.1,0-4.1,0.6-5.8,1.8c-1.4-3.3-3.9-5.9-7-7.3c5.9-16.1,0.5-34.2-13.5-44.3c-3.1-2.3-6.5-4-10.1-5.2l-4.6-1.6l3,3.9    c9.3,12.3,9.5,29.7,0.4,42.2c-9.1,12.5-25.7,17.7-40.3,12.7l-4.6-1.6L14.8,81.8z M86.5,82.1l0.7,2.8l1.9-2.2    c1.4-1.5,3.3-2.4,5.4-2.4c3.4,0,6.3,2.4,7,5.7l0.2,1.1l1.1,0.1c2.7,0.3,5.1,1.9,6.5,4.2c0.7,1.2,1.1,2.4,1.1,3.7    c-0.2,4.3-3.8,7.8-8.1,7.8H64.2c-4.5,0-8.1-3.7-8.1-8.1v-0.4c0-4.1,3.1-7.6,7.1-8.1l1.3-0.3v-1.3c0-6.2,5-11.2,11.2-11.2    C80.9,73.5,85.4,77,86.5,82.1z M59.2,68.6C68.2,56.1,69,40,61.6,27c1.7,0.8,3.3,1.8,4.8,2.9c12.9,9.4,17.9,26,12.5,40.8    c-1.1-0.3-2.3-0.4-3.4-0.4c-7.4,0-13.5,5.7-14.1,13c-4.7,1.1-8.1,5.2-8.5,10c-9.8,2.1-20-0.1-28.2-6c-1.5-1.1-3-2.3-4.3-3.7    C35.1,86.7,50.2,81,59.2,68.6z"></path><polygon points="34.8,60 33,51.4 31.6,60 23,59 30.6,63.1 26.8,71.5 33.2,64.9 39.1,71 35.9,63.1 42.6,58.8   "></polygon><polygon points="32.4,24.8 30.8,17.3 29.6,24.8 22.1,23.9 28.7,27.5 25.5,34.9 31,29.2 36.1,34.4 33.3,27.5 39.1,23.7   "></polygon><polygon points="96.3,54.3 93.3,60.9 98.3,55.8 102.7,60.3 100.2,54.2 105.3,50.9 99.5,51.8 98,45.1 97,51.9 90.3,51.1   "></polygon></g></g></g><g id="SvgjsG1036" featureKey="UxBHKT-0" transform="matrix(2.500893367005524,0,0,2.500893367005524,86.49875024020737,-11.554127069360987)" fill="#2b95e4"><path d="M17.79 10.04 q1.13 1.24 1.13 3.46 l0 6.5 l-3.02 0 l0 -6.5 q0 -1.18 -0.59 -1.7 t-1.55 -0.52 q-0.8 0 -1.44 0.6 t-0.66 2 l0 6.12 l-3.02 0 l0 -6.5 q0 -1.18 -0.59 -1.7 t-1.53 -0.52 q-0.86 0 -1.49 0.64 t-0.63 2.26 l-0.02 5.82 l-2.98 0 l0 -11 l2.98 0 l0 1 q0.58 -0.52 1.4 -0.86 t1.5 -0.34 q2.32 0 3.54 1.5 q0.62 -0.7 1.54 -1.1 t2 -0.4 q2.3 0 3.43 1.24 z M24.47 19.49 q-1.37 -0.77 -2.17 -2.09 t-0.8 -2.88 q0 -1.54 0.8 -2.86 t2.17 -2.09 t2.99 -0.77 t3 0.77 t2.19 2.09 t0.81 2.86 q0 1.56 -0.81 2.88 t-2.19 2.09 t-3 0.77 t-2.99 -0.77 z M25.94 11.83 q-0.7 0.41 -1.1 1.12 t-0.4 1.57 q0 0.9 0.39 1.61 t1.08 1.12 t1.55 0.41 q0.84 0 1.53 -0.41 t1.09 -1.13 t0.4 -1.6 q0 -0.86 -0.4 -1.57 t-1.09 -1.12 t-1.53 -0.41 q-0.82 0 -1.52 0.41 z M38.35 19.49 q-1.37 -0.77 -2.17 -2.09 t-0.8 -2.88 q0 -1.54 0.8 -2.86 t2.17 -2.09 t2.99 -0.77 t3 0.77 t2.19 2.09 t0.81 2.86 q0 1.56 -0.81 2.88 t-2.19 2.09 t-3 0.77 t-2.99 -0.77 z M39.82 11.83 q-0.7 0.41 -1.1 1.12 t-0.4 1.57 q0 0.9 0.39 1.61 t1.08 1.12 t1.55 0.41 q0.84 0 1.53 -0.41 t1.09 -1.13 t0.4 -1.6 q0 -0.86 -0.4 -1.57 t-1.09 -1.12 t-1.53 -0.41 q-0.82 0 -1.52 0.41 z M58.99000000000001 10.02 q1.03 1.22 1.03 3.48 l0 6.5 l-3.06 0 l0 -6.5 q0 -2.22 -2.12 -2.22 q-0.82 0 -1.48 0.65 t-0.62 2.25 l0 5.82 l-2.98 0 l0 -11 l2.98 0 l0 0.98 q0.54 -0.54 1.36 -0.86 t1.58 -0.32 q2.28 0 3.31 1.22 z M62.96 4.880000000000001 l3 0 l0 15.12 l-3 0 l0 -15.12 z M71.62 7.369999999999999 q-0.48 0.47 -1.16 0.47 q-0.7 0 -1.19 -0.47 t-0.49 -1.15 q0 -0.66 0.49 -1.13 t1.19 -0.47 q0.68 0 1.16 0.47 t0.48 1.13 q0 0.68 -0.48 1.15 z M68.96 9.02 l3 0 l0 10.98 l-3 0 l0 -10.98 z M78.61999999999999 16.08 q0 0.7 0.24 1.17 t1.12 0.47 q0.4 0 0.76 -0.04 l0 2.52 q-0.72 0.08 -1.34 0.08 q-1.28 0 -2.07 -0.21 t-1.23 -0.81 t-0.44 -1.72 l0 -6.1 l-1.34 0 l0 -2.62 l1.34 0 l0 -2.94 l2.96 0 l0 2.94 l2.2 0 l0 2.62 l-2.2 0 l0 4.64 z M85.92999999999999 19.74 q-1.37 -0.54 -2.35 -1.83 t-0.98 -3.37 t0.99 -3.36 t2.37 -1.82 t2.62 -0.54 q1.44 0 2.74 0.64 t2.13 1.88 t0.87 2.94 q0 0.52 -0.02 0.9 t-0.04 0.48 l-8.68 0 q0.24 1.16 1.2 1.58 t1.8 0.42 q1.08 0 1.72 -0.39 t1.1 -0.89 l2.32 1.34 q-1.88 2.56 -5.14 2.56 q-1.28 0 -2.65 -0.54 z M86.53999999999999 12.05 q-0.78 0.61 -0.88 1.49 l5.5 0 q-0.06 -0.52 -0.4 -1 t-0.91 -0.79 t-1.29 -0.31 q-1.24 0 -2.02 0.61 z M96.76 4.880000000000001 l3 0 l0 15.12 l-3 0 l0 -15.12 z M103.92 24.12 l1.9 -4.52 l-4.72 -10.56 l3.46 0 l2.78 7 l2.56 -7 l3.46 0 l-6.14 15.08 l-3.3 0 z"></path></g><g id="SvgjsG1037" featureKey="sloganFeature-0" transform="matrix(0.674750124368108,0,0,0.674750124368108,111.3252498756319,39.99335370396336)" fill="#2b95e4"><path d="M1 20 l0 -11.98 c0 -0.5 0.1 -0.6 0.26 -0.6 l8.76 0 c0.14 0 0.26 0.1 0.26 0.24 l0 2.26 c0 0.14 -0.12 0.26 -0.26 0.26 l-5.92 0 l0 2.08 l3.74 0 c0.14 0 0.26 0.12 0.26 0.26 l0 2.24 c0 0.14 -0.12 0.26 -0.26 0.26 l-3.74 0 l0 2.14 l5.9 0 c0.14 0 0.26 0.12 0.26 0.26 l0 2.24 c0 0.14 -0.12 0.26 -0.26 0.26 l-8.74 0 c-0.16 0 -0.26 -0.12 -0.26 0.08 z M26.543000000000003 20 c-0.14 0 -0.26 -0.12 -0.26 -0.26 l0 -11.98 c0 -0.14 0.12 -0.26 0.26 -0.26 l2.36 0 c0.08 0 0.16 0.04 0.22 0.1 l4.6 7.1 l0 -6.94 c0 -0.14 0.12 -0.26 0.26 -0.26 l2.46 0 c0.14 0 0.26 0.12 0.26 0.26 l0 11.98 c0 0.14 -0.12 0.26 -0.26 0.26 l-2.36 0 c-0.08 0 -0.16 -0.04 -0.22 -0.1 l-4.58 -7.06 l0 6.9 c0 0.14 -0.12 0.26 -0.26 0.26 l-2.48 0 z M55.946000000000005 20 c-0.14 0 -0.24 -0.12 -0.24 -0.26 l0 -9.44 l-2.74 0 c-0.14 0 -0.26 -0.1 -0.26 -0.24 l0 -2.3 c0 -0.14 0.12 -0.26 0.26 -0.26 l8.58 0 c0.16 0 0.26 0.12 0.26 0.26 l0 2.3 c0 0.14 -0.1 0.24 -0.26 0.24 l-2.74 0 l0 9.44 c0 0.14 -0.12 0.26 -0.26 0.26 l-2.6 0 z M77.809 20 l0 -11.98 c0 -0.5 0.1 -0.6 0.26 -0.6 l8.76 0 c0.14 0 0.26 0.1 0.26 0.24 l0 2.26 c0 0.14 -0.12 0.26 -0.26 0.26 l-5.92 0 l0 2.08 l3.74 0 c0.14 0 0.26 0.12 0.26 0.26 l0 2.24 c0 0.14 -0.12 0.26 -0.26 0.26 l-3.74 0 l0 2.14 l5.9 0 c0.14 0 0.26 0.12 0.26 0.26 l0 2.24 c0 0.14 -0.12 0.26 -0.26 0.26 l-8.74 0 c-0.16 0 -0.26 -0.12 -0.26 0.08 z M103.352 20 c-0.16 0 -0.26 -0.12 -0.26 -0.26 l0 -11.98 c0 -0.14 0.1 -0.26 0.26 -0.26 l4.88 0 c1.52 0 2.72 0.38 3.56 1.16 c1.24 1.12 1.66 3.24 1.06 4.8 c-0.22 0.56 -0.6 1.08 -1.08 1.46 c-0.28 0.22 -0.58 0.38 -0.88 0.54 c0.86 1.36 2.16 4.12 2.16 4.12 c0.02 0.04 0.06 0.1 0.06 0.16 c0 0.14 -0.12 0.26 -0.26 0.26 l-2.96 0 c-0.08 0 -0.18 -0.06 -0.22 -0.14 l-1.74 -3.82 c-0.62 0.04 -1.1 0.02 -1.74 0.02 l0 3.68 c0 0.14 -0.12 0.26 -0.26 0.26 l-2.58 0 z M106.192 13.280000000000001 c0 0 2.52 0.28 3.4 -0.3 c0.34 -0.22 0.54 -0.76 0.54 -1.16 c-0.02 -0.44 -0.24 -0.9 -0.6 -1.18 c-0.38 -0.32 -1.32 -0.42 -1.8 -0.42 l-1.54 0.04 l0 3.02 z M132.375 20 c-0.14 0 -0.24 -0.12 -0.24 -0.26 l0 -9.44 l-2.74 0 c-0.14 0 -0.26 -0.1 -0.26 -0.24 l0 -2.3 c0 -0.14 0.12 -0.26 0.26 -0.26 l8.58 0 c0.16 0 0.26 0.12 0.26 0.26 l0 2.3 c0 0.14 -0.1 0.24 -0.26 0.24 l-2.74 0 l0 9.44 c0 0.14 -0.12 0.26 -0.26 0.26 l-2.6 0 z M153.298 20 c-0.08 0 -0.16 -0.04 -0.2 -0.12 c-0.06 -0.06 -0.06 -0.16 -0.04 -0.24 l4.66 -11.98 c0.04 -0.1 0.14 -0.16 0.24 -0.16 l2.68 0 c0.1 0 0.2 0.06 0.24 0.16 l4.58 11.98 c0.02 0.08 0.02 0.16 -0.04 0.24 c-0.04 0.08 -0.12 0.12 -0.2 0.12 l-2.78 0 c-0.1 0 -0.2 -0.06 -0.24 -0.16 l-0.74 -1.84 l-4.5 0.02 l-0.74 1.82 c-0.04 0.1 -0.14 0.16 -0.24 0.16 l-2.68 0 z M157.77800000000002 15.5 l2.88 0 l-1.44 -4.24 z M181.541 20 c-0.14 0 -0.26 -0.12 -0.26 -0.26 l0 -11.98 c0 -0.14 0.12 -0.26 0.26 -0.26 l2.6 0 c0.14 0 0.26 0.12 0.26 0.26 l0 11.98 c0 0.14 -0.12 0.26 -0.26 0.26 l-2.6 0 z M200.664 20 c-0.14 0 -0.26 -0.12 -0.26 -0.26 l0 -11.98 c0 -0.14 0.12 -0.26 0.26 -0.26 l2.36 0 c0.08 0 0.16 0.04 0.22 0.1 l4.6 7.1 l0 -6.94 c0 -0.14 0.12 -0.26 0.26 -0.26 l2.46 0 c0.14 0 0.26 0.12 0.26 0.26 l0 11.98 c0 0.14 -0.12 0.26 -0.26 0.26 l-2.36 0 c-0.08 0 -0.16 -0.04 -0.22 -0.1 l-4.58 -7.06 l0 6.9 c0 0.14 -0.12 0.26 -0.26 0.26 l-2.48 0 z M227.087 20 c-0.14 0 -0.26 -0.12 -0.26 -0.26 l0 -11.98 c0 -0.14 0.12 -0.26 0.26 -0.26 l2.88 0 c0.1 0 0.2 0.06 0.24 0.14 l3 7.4 l2.98 -7.4 c0.04 -0.08 0.14 -0.14 0.24 -0.14 l2.88 0 c0.14 0 0.26 0.12 0.26 0.26 l0 11.98 c0 0.14 -0.12 0.26 -0.26 0.26 l-2.34 0 c-0.14 0 -0.26 -0.12 -0.26 -0.26 l0 -6.44 l-2.44 6.2 c-0.04 0.08 -0.14 0.14 -0.22 0.14 l-1.68 0 c-0.1 0 -0.2 -0.06 -0.24 -0.14 l-2.46 -6.2 l0 6.44 c0 0.14 -0.12 0.26 -0.26 0.26 l-2.32 0 z M255.57 20 l0 -11.98 c0 -0.5 0.1 -0.6 0.26 -0.6 l8.76 0 c0.14 0 0.26 0.1 0.26 0.24 l0 2.26 c0 0.14 -0.12 0.26 -0.26 0.26 l-5.92 0 l0 2.08 l3.74 0 c0.14 0 0.26 0.12 0.26 0.26 l0 2.24 c0 0.14 -0.12 0.26 -0.26 0.26 l-3.74 0 l0 2.14 l5.9 0 c0.14 0 0.26 0.12 0.26 0.26 l0 2.24 c0 0.14 -0.12 0.26 -0.26 0.26 l-8.74 0 c-0.16 0 -0.26 -0.12 -0.26 0.08 z M281.113 20 c-0.14 0 -0.26 -0.12 -0.26 -0.26 l0 -11.98 c0 -0.14 0.12 -0.26 0.26 -0.26 l2.36 0 c0.08 0 0.16 0.04 0.22 0.1 l4.6 7.1 l0 -6.94 c0 -0.14 0.12 -0.26 0.26 -0.26 l2.46 0 c0.14 0 0.26 0.12 0.26 0.26 l0 11.98 c0 0.14 -0.12 0.26 -0.26 0.26 l-2.36 0 c-0.08 0 -0.16 -0.04 -0.22 -0.1 l-4.58 -7.06 l0 6.9 c0 0.14 -0.12 0.26 -0.26 0.26 l-2.48 0 z M310.516 20 c-0.14 0 -0.24 -0.12 -0.24 -0.26 l0 -9.44 l-2.74 0 c-0.14 0 -0.26 -0.1 -0.26 -0.24 l0 -2.3 c0 -0.14 0.12 -0.26 0.26 -0.26 l8.58 0 c0.16 0 0.26 0.12 0.26 0.26 l0 2.3 c0 0.14 -0.1 0.24 -0.26 0.24 l-2.74 0 l0 9.44 c0 0.14 -0.12 0.26 -0.26 0.26 l-2.6 0 z"></path></g>
			</g>
		</svg>
	